# File created by Blade
# Date/Time:  Wed Jan 21 14:37:15 2015
# Frame Rate: 120.000 fps
#------------------------------------------------------
:FULLY-SPECIFIED
:DEGREES
977
root 18.727843 35.470268 -22.238066 -171.931566 -2.390145 -178.523933
Spine -17.242425 -2.189792 1.966643
Head 6.676533 -0.339977 2.056072
LeftShoulder -15.146882 -35.994151 23.728444
LeftArm -5.155623 3.245716 -10.056186
LeftForeArm 18.870789 -0.000000 -1.726755
LeftHand -5.508443 -0.000000 -5.900768
LeftHandThumb1 -26.253704 0.000000 33.147579
RightShoulder -12.269841 1.005317 -12.840227
RightArm 0.717882 40.097276 12.440648
RightForeArm -38.056519 -0.000000 6.141426
RightHand -4.453821 -0.000000 8.575734
RightHandThumb1 -24.326973 -0.000000 -32.862282
LeftUpLeg 0.125635 12.423619 1.772229
LeftLeg -6.385947 -0.000000 0.000000
LeftFoot -20.574375 29.244079 -11.822911
LeftToeBase 27.071888 -0.000000 -0.000000
RightUpLeg -0.432526 -9.187212 1.800362
RightLeg -3.667167 -0.000000 0.000000
RightFoot -21.049853 -26.302977 14.104501
RightToeBase 23.738306 -0.000000 -0.000000
978
root 18.727469 35.469354 -22.242772 -171.937288 -2.378596 -178.518010
Spine -17.244266 -2.179582 1.972217
Head 6.671550 -0.324836 2.048783
LeftShoulder -15.160857 -35.992368 23.731397
LeftArm -5.153174 3.195604 -10.055523
LeftForeArm 18.789424 0.000000 -1.738084
LeftHand -5.509368 -0.000000 -5.901397
LeftHandThumb1 -26.253704 0.000000 33.147579
RightShoulder -12.281342 1.026651 -12.841283
RightArm 0.740180 40.177795 12.453188
RightForeArm -38.092237 -0.000000 6.149409
RightHand -4.475568 0.000000 8.534894
RightHandThumb1 -24.326973 -0.000000 -32.862282
LeftUpLeg 0.145208 12.421152 1.779635
LeftLeg -6.394334 -0.000000 0.000000
LeftFoot -20.583889 29.260997 -11.827517
LeftToeBase 27.058756 -0.000000 -0.000000
RightUpLeg -0.419345 -9.172094 1.803834
RightLeg -3.669736 -0.000000 0.000000
RightFoot -21.065449 -26.311445 14.111590
RightToeBase 23.794821 -0.000000 -0.000000
979
root 18.727324 35.468583 -22.248036 -171.940274 -2.368196 -178.513389
Spine -17.257364 -2.167520 1.978906
Head 6.684333 -0.314360 2.025739
LeftShoulder -15.156436 -35.975522 23.708886
LeftArm -5.143670 3.182094 -10.045220
LeftForeArm 18.670780 0.000000 -1.769088
LeftHand -5.530549 -0.000000 -5.857126
LeftHandThumb1 -26.253704 0.000000 33.147579
RightShoulder -12.283691 1.021123 -12.850906
RightArm 0.745224 40.216603 12.469591
RightForeArm -38.098795 -0.000000 6.177247
RightHand -4.522448 -0.000000 8.556426
RightHandThumb1 -24.326973 -0.000000 -32.862282
LeftUpLeg 0.166570 12.432408 1.786513
LeftLeg -6.410123 -0.000000 0.000000
LeftFoot -20.583754 29.266292 -11.820722
LeftToeBase 27.059998 -0.000000 -0.000000
RightUpLeg -0.412215 -9.169393 1.805991
RightLeg -3.659875 -0.000000 0.000000
RightFoot -21.054420 -26.302936 14.090101
RightToeBase 23.751767 -0.000000 -0.000000
980
root 18.727005 35.468005 -22.252595 -171.947122 -2.352523 -178.511950
Spine -17.261501 -2.159800 1.981153
Head 6.693762 -0.287822 2.010919
LeftShoulder -15.167141 -35.972872 23.706038
LeftArm -5.150938 3.164092 -10.045444
LeftForeArm 18.621410 -0.000000 -1.771190
LeftHand -5.484565 -0.000000 -5.928432
LeftHandThumb1 -26.253704 0.000000 33.147579
RightShoulder -12.266318 1.047397 -12.844226
RightArm 0.728883 40.203211 12.440460
RightForeArm -38.070882 -0.000000 6.179778
RightHand -4.582386 -0.000000 8.541131
RightHandThumb1 -24.326973 -0.000000 -32.862282
LeftUpLeg 0.186666 12.433178 1.788947
LeftLeg -6.414961 -0.000000 0.000000
LeftFoot -20.601696 29.266316 -11.838418
LeftToeBase 27.089392 -0.000000 -0.000000
RightUpLeg -0.399968 -9.125734 1.802910
RightLeg -3.661124 -0.000000 0.000000
RightFoot -21.089013 -26.337082 14.120394
RightToeBase 23.787568 -0.000000 -0.000000
981
root 18.726900 35.467052 -22.258314 -171.952862 -2.341066 -178.507053
Spine -17.270930 -2.144228 1.985226
Head 6.698952 -0.287637 1.996421
LeftShoulder -15.152338 -35.984693 23.699837
LeftArm -5.180526 3.192612 -10.051556
LeftForeArm 18.507915 -0.000000 -1.775992
LeftHand -5.518997 -0.000000 -5.863815
LeftHandThumb1 -26.253704 0.000000 33.147579
RightShoulder -12.280109 1.024840 -12.853677
RightArm 0.762719 40.215207 12.475950
RightForeArm -38.064220 -0.000000 6.177141
RightHand -4.600514 -0.000000 8.507604
RightHandThumb1 -24.326973 -0.000000 -32.862282
LeftUpLeg 0.211676 12.444725 1.795354
LeftLeg -6.429404 -0.000000 0.000000
LeftFoot -20.598611 29.276172 -11.823557
LeftToeBase 27.091626 -0.000000 -0.000000
RightUpLeg -0.393005 -9.129726 1.804802
RightLeg -3.647354 -0.000000 0.000000
RightFoot -21.101097 -26.331952 14.107108
RightToeBase 23.780110 -0.000000 -0.000000
982
root 18.725881 35.466536 -22.267419 -171.990551 -2.373678 -178.497117
Spine -17.248120 -2.179599 2.010930
Head 6.710010 -0.253603 1.973024
LeftShoulder -15.169630 -35.970636 23.689684
LeftArm -5.177085 3.175162 -10.062695
LeftForeArm 18.475892 -0.000000 -1.780760
LeftHand -5.510337 -0.000000 -5.938303
LeftHandThumb1 -26.253704 0.000000 33.147579
RightShoulder -12.276495 1.013686 -12.856815
RightArm 0.779381 40.188264 12.480507
RightForeArm -38.057915 -0.000000 6.183417
RightHand -4.604181 0.000000 8.507300
RightHandThumb1 -24.326973 -0.000000 -32.862282
LeftUpLeg 0.268174 12.410873 1.819263
LeftLeg -6.443818 -0.000000 0.000000
LeftFoot -20.607502 29.278553 -11.827053
LeftToeBase 27.114839 -0.000000 -0.000000
RightUpLeg -0.322556 -9.186289 1.810834
RightLeg -3.678215 -0.000000 0.000000
RightFoot -21.086099 -26.309721 14.126211
RightToeBase 23.729786 -0.000000 -0.000000
983
root 18.725323 35.465649 -22.272538 -171.992946 -2.365340 -178.494368
Spine -17.262768 -2.169749 2.016573
Head 6.737330 -0.245613 1.942770
LeftShoulder -15.163953 -35.945965 23.674215
LeftArm -5.181225 3.149217 -10.069293
LeftForeArm 18.439325 -0.000000 -1.794373
LeftHand -5.510198 0.000000 -5.925451
LeftHandThumb1 -26.253704 0.000000 33.147579
RightShoulder -12.268081 1.010525 -12.861538
RightArm 0.766565 40.095112 12.471781
RightForeArm -37.983098 -0.000000 6.200430
RightHand -4.629577 -0.000000 8.496390
RightHandThumb1 -24.326973 -0.000000 -32.862282
LeftUpLeg 0.291509 12.394691 1.823878
LeftLeg -6.464220 -0.000000 0.000000
LeftFoot -20.609937 29.308007 -11.827580
LeftToeBase 27.115922 -0.000000 -0.000000
RightUpLeg -0.318036 -9.191192 1.813008
RightLeg -3.672752 -0.000000 0.000000
RightFoot -21.124735 -26.295047 14.169996
RightToeBase 23.789011 -0.000000 -0.000000
984
root 18.725349 35.465103 -22.277610 -172.000587 -2.346444 -178.489392
Spine -17.266772 -2.146509 2.018894
Head 6.744828 -0.233964 1.929021
LeftShoulder -15.149871 -35.954415 23.653434
LeftArm -5.194138 3.159791 -10.063807
LeftForeArm 18.389096 -0.000000 -1.803385
LeftHand -5.527057 -0.000000 -5.933982
LeftHandThumb1 -26.253704 0.000000 33.147579
RightShoulder -12.261936 1.006463 -12.866767
RightArm 0.750938 40.031658 12.471582
RightForeArm -37.960837 -0.000000 6.218137
RightHand -4.649499 -0.000000 8.514614
RightHandThumb1 -24.326973 -0.000000 -32.862282
LeftUpLeg 0.315497 12.407139 1.831299
LeftLeg -6.474298 -0.000000 0.000000
LeftFoot -20.616243 29.317533 -11.821332
LeftToeBase 27.092974 -0.000000 -0.000000
RightUpLeg -0.304780 -9.183057 1.813011
RightLeg -3.667646 -0.000000 0.000000
RightFoot -21.100886 -26.287338 14.141956
RightToeBase 23.771981 -0.000000 -0.000000
985
root 18.725341 35.464907 -22.281852 -172.006150 -2.338596 -178.487699
Spine -17.268336 -2.151063 2.021904
Head 6.727203 -0.226701 1.939378
LeftShoulder -15.170127 -35.931829 23.649843
LeftArm -5.188085 3.120375 -10.066577
LeftForeArm 18.349146 -0.000000 -1.817025
LeftHand -5.531194 -0.000000 -5.941171
LeftHandThumb1 -26.253704 0.000000 33.147579
RightShoulder -12.255274 0.992794 -12.863738
RightArm 0.773687 40.015113 12.492978
RightForeArm -37.952468 -0.000000 6.208818
RightHand -4.639253 -0.000000 8.487195
RightHandThumb1 -24.326973 -0.000000 -32.862282
LeftUpLeg 0.337473 12.405386 1.835324
LeftLeg -6.488982 -0.000000 0.000000
LeftFoot -20.614739 29.316373 -11.847463
LeftToeBase 27.018672 -0.000000 -0.000000
RightUpLeg -0.294481 -9.168631 1.810903
RightLeg -3.660284 -0.000000 0.000000
RightFoot -21.081751 -26.292954 14.101371
RightToeBase 23.732865 -0.000000 -0.000000
